<?xml version="1.0" standalone="no"?>
<!DOCTYPE svg PUBLIC "-//W3C//DTD SVG 20010904//EN"
 "http://www.w3.org/TR/2001/REC-SVG-20010904/DTD/svg10.dtd">
<svg version="1.0" xmlns="http://www.w3.org/2000/svg"
 width="219.000000pt" height="49.000000pt" viewBox="0 0 219.000000 49.000000"
 preserveAspectRatio="xMidYMid meet">
<metadata>
Created by potrace 1.16, written by Peter Selinger 2001-2019
</metadata>
<g transform="translate(0.000000,49.000000) scale(0.100000,-0.100000)"
fill="#000000" stroke="none">
<path d="M2160 342 c0 -37 -1 -38 -30 -34 -67 10 -110 -28 -110 -97 0 -79 42
-117 120 -106 l50 7 0 134 c0 112 -2 134 -15 134 -11 0 -15 -11 -15 -38z"/>
<path d="M1340 240 l0 -130 35 0 35 0 0 55 0 55 45 0 45 0 0 -55 0 -55 40 0
40 0 0 130 0 130 -40 0 -40 0 0 -45 0 -45 -45 0 -45 0 0 45 c0 45 0 45 -35 45
l-35 0 0 -130z"/>
<path d="M40 215 l0 -145 525 0 525 0 0 145 0 145 -525 0 -525 0 0 -145z"/>
<path d="M1157 342 c-26 -28 -25 -232 1 -255 26 -23 94 -22 115 1 26 28 25
232 -1 255 -26 23 -94 22 -115 -1z"/>
<path d="M1630 281 c0 -28 1 -28 49 -23 30 2 51 0 55 -7 5 -7 -7 -11 -38 -11
-55 0 -86 -25 -86 -70 0 -45 33 -73 78 -66 21 3 56 6 80 6 l42 -1 0 81 c0 107
-12 120 -110 120 l-70 0 0 -29z"/>
<path d="M1860 210 l0 -100 40 0 39 0 3 68 3 67 38 3 c33 3 37 6 37 32 l0 29
-80 0 -80 0 0 -99z"/>
</g>
</svg>
