<?xml version="1.0" standalone="no"?>
<!DOCTYPE svg PUBLIC "-//W3C//DTD SVG 20010904//EN"
 "http://www.w3.org/TR/2001/REC-SVG-20010904/DTD/svg10.dtd">
<svg version="1.0" xmlns="http://www.w3.org/2000/svg"
 width="32.000000pt" height="29.000000pt" viewBox="0 0 32.000000 29.000000"
 preserveAspectRatio="xMidYMid meet">
<metadata>
Created by potrace 1.16, written by Peter Selinger 2001-2019
</metadata>
<g transform="translate(0.000000,29.000000) scale(0.100000,-0.100000)"
fill="#000000" stroke="none">
<path d="M0 275 c0 -9 9 -15 23 -15 21 0 24 -8 40 -97 10 -54 18 -113 17 -131
-1 -31 1 -33 27 -30 20 2 29 9 31 26 3 20 9 22 56 22 48 0 53 -2 52 -23 -1
-17 5 -23 27 -25 15 -2 27 0 28 5 1 4 3 25 4 46 l4 37 -97 2 -97 2 95 5 c107
7 107 7 109 109 l1 52 -120 0 c-100 0 -120 3 -120 15 0 11 -11 15 -40 15 -29
0 -40 -4 -40 -15z"/>
</g>
</svg>
