<?xml version="1.0" standalone="no"?>
<!DOCTYPE svg PUBLIC "-//W3C//DTD SVG 20010904//EN"
 "http://www.w3.org/TR/2001/REC-SVG-20010904/DTD/svg10.dtd">
<svg version="1.0" xmlns="http://www.w3.org/2000/svg"
 width="24.000000pt" height="24.000000pt" viewBox="0 0 24.000000 24.000000"
 preserveAspectRatio="xMidYMid meet">
<metadata>
Created by potrace 1.16, written by Peter Selinger 2001-2019
</metadata>
<g transform="translate(0.000000,24.000000) scale(0.100000,-0.100000)"
fill="#000000" stroke="none">
<path d="M4 229 c-3 -6 14 -32 40 -58 l46 -47 -45 -44 c-25 -24 -45 -50 -45
-56 0 -31 26 -23 71 22 l49 48 50 -49 c39 -38 52 -47 62 -37 10 10 1 23 -37
62 l-49 50 48 49 c45 45 53 71 22 71 -6 0 -32 -20 -56 -45 l-44 -45 -46 45
c-49 48 -55 51 -66 34z"/>
</g>
</svg>
